<svg id="Layer_1" data-name="Layer 1" xmlns="http://www.w3.org/2000/svg" xmlns:xlink="http://www.w3.org/1999/xlink" viewBox="0 0 607.5 266.97"><defs><style>.cls-1{fill:#31443e;}.cls-2{fill:url(#linear-gradient);}.cls-3{fill:url(#linear-gradient-2);}.cls-4{fill:url(#linear-gradient-3);}</style><linearGradient id="linear-gradient" x1="105.19" y1="2.11" x2="97.98" y2="429.42" gradientUnits="userSpaceOnUse"><stop offset="0" stop-color="#30b28a"/><stop offset="1" stop-color="#1c7e8a"/></linearGradient><linearGradient id="linear-gradient-2" x1="104.17" y1="2.09" x2="96.96" y2="429.41" xlink:href="#linear-gradient"/><linearGradient id="linear-gradient-3" x1="103.92" y1="57.89" x2="97.93" y2="298.56" gradientUnits="userSpaceOnUse"><stop offset="0" stop-color="#d5b841"/><stop offset="1" stop-color="#ba8632"/></linearGradient></defs><title>Artboard 4</title><path class="cls-1" d="M265.27,142.28a34.57,34.57,0,0,0,17.45,4.41,35.53,35.53,0,0,0,12.77-2.24l5.85,7.2h14.39l-10.46-13.07a32.4,32.4,0,0,0,7.05-9.05q4.5-8.37,4.49-20.26T312.32,89A31.3,31.3,0,0,0,300.1,76.23a36.59,36.59,0,0,0-34.83,0A31.3,31.3,0,0,0,253.08,89q-4.5,8.37-4.49,20.3t4.49,20.23A31.85,31.85,0,0,0,265.27,142.28Zm1.23-46a18,18,0,0,1,6.46-8,18.79,18.79,0,0,1,19.51,0,18,18,0,0,1,6.46,8,32.85,32.85,0,0,1,2.29,13,32.83,32.83,0,0,1-2.29,13,18.61,18.61,0,0,1-3.09,5l-5.37-6.93h-13.1l9.34,12.34a19.72,19.72,0,0,1-4,.38,17.36,17.36,0,0,1-9.76-2.73,18.07,18.07,0,0,1-6.46-8.05,33,33,0,0,1-2.29-13A33,33,0,0,1,266.5,96.23Z"/><path class="cls-1" d="M374.41,118.81a14.89,14.89,0,0,1-1.82,7.4,12.86,12.86,0,0,1-5.17,5.09,17.37,17.37,0,0,1-15.6,0,12.65,12.65,0,0,1-5.16-5.09,14.5,14.5,0,0,1-1.86-7.4v-46H329.41v47.31a25.61,25.61,0,0,0,3.79,14,25.34,25.34,0,0,0,10.55,9.31,39.58,39.58,0,0,0,31.69,0,24.77,24.77,0,0,0,14.39-23.27V72.82H374.41Z"/><path class="cls-1" d="M445.6,117.37a5.3,5.3,0,0,0,.71-.29,20.37,20.37,0,0,0,9.05-8,23.83,23.83,0,0,0,3.11-12.48A24.78,24.78,0,0,0,455.41,84a20.93,20.93,0,0,0-8.92-8.28,31.48,31.48,0,0,0-14.13-2.94H403.63v72.87H419V119.87H430.3l13.78,25.82h17ZM419,85.42h10.4a18.41,18.41,0,0,1,7.37,1.29,9.27,9.27,0,0,1,4.38,3.79,12,12,0,0,1,1.44,6.11,11.49,11.49,0,0,1-1.44,6,9,9,0,0,1-4.35,3.64,19.5,19.5,0,0,1-7.34,1.21H419Z"/><path class="cls-1" d="M488.46,129.06h26.31l5.41,16.63h16.5L511.57,72.82H491.72l-25.17,72.87h16.5Zm12.89-39.59h.56l9,27.58H492.36Z"/><polygon class="cls-1" points="592.16 72.82 592.16 118.64 591.52 118.64 560.06 72.82 546.55 72.82 546.55 145.69 561.97 145.69 561.97 99.81 562.5 99.81 594.19 145.69 607.5 145.69 607.5 72.82 592.16 72.82"/><polygon class="cls-1" points="291.38 176.61 247.44 176.61 247.44 182.9 265.86 182.9 265.86 235.18 272.96 235.18 272.96 182.9 291.38 182.9 291.38 176.61"/><path class="cls-1" d="M312.91,176.61l-21.53,58.57h7.43l5.9-16.6h23.68l5.9,16.6h7.43l-21.5-58.57Zm-6,35.69,9.37-26.43h.46l9.37,26.43Z"/><polygon class="cls-1" points="358.9 176.61 351.8 176.61 351.8 235.18 386.13 235.18 386.13 228.89 358.9 228.89 358.9 176.61"/><polygon class="cls-1" points="405.13 208.98 431.57 208.98 431.57 202.69 405.13 202.69 405.13 182.9 433.39 182.9 433.39 176.61 398.02 176.61 398.02 235.18 433.83 235.18 433.83 228.89 405.13 228.89 405.13 208.98"/><polygon class="cls-1" points="486.58 222.73 486.02 222.73 453.98 176.61 447.1 176.61 447.1 235.18 454.21 235.18 454.21 189.19 454.77 189.19 486.69 235.18 493.57 235.18 493.57 176.61 486.58 176.61 486.58 222.73"/><polygon class="cls-1" points="505.46 182.9 523.91 182.9 523.91 235.18 530.99 235.18 530.99 182.9 549.43 182.9 549.43 176.61 505.46 176.61 505.46 182.9"/><path class="cls-2" d="M101.59,224.2a67.89,67.89,0,0,0-52.15-24.32H0V231.7H49.44A36.22,36.22,0,0,1,85.62,267h31.91A36.23,36.23,0,0,1,153.7,231.7h49.46V199.88H153.7A67.77,67.77,0,0,0,101.59,224.2Z"/><path class="cls-3" d="M170.16,42.91,101.77,0,33.37,42.91A71.24,71.24,0,0,0,0,103.24v83.09H35.48V102.94A35.18,35.18,0,0,1,52,73.14l49.8-31.24,49.79,31.24a35.18,35.18,0,0,1,16.49,29.8v83.39h35.48V103.24A71.24,71.24,0,0,0,170.16,42.91Z"/><path class="cls-4" d="M144,84.33,101.76,57.84,59.5,84.33a22.49,22.49,0,0,0-10.49,19v83.06h.44c2.32,0,4.76.11,7.08.32h.12a78.89,78.89,0,0,1,30.81,9.22,76.13,76.13,0,0,1,14.1,9.31l.11-.12a.21.21,0,0,1,.21-.08l.09-.12c.12-.09.12-.09.23-.09a72.07,72.07,0,0,1,13-8.81c.12,0,.21-.09.33-.09a78.47,78.47,0,0,1,31-9.22c2.32-.21,4.67-.32,7.08-.32h.85V103.28A22.41,22.41,0,0,0,144,84.33Zm-13.6,63.18v16.8H113.66l-11.87,11.86L89.93,164.31H73.13v-16.8L61.29,135.67l11.84-11.83V107h16.8l11.86-11.87L113.66,107h16.77v16.8l11.81,11.83Z"/></svg>