<svg id="Layer_1" data-name="Layer 1" xmlns="http://www.w3.org/2000/svg" xmlns:xlink="http://www.w3.org/1999/xlink" viewBox="0 0 203.53 266.97"><defs><style>.cls-1{fill:url(#linear-gradient);}.cls-2{fill:url(#linear-gradient-2);}.cls-3{fill:url(#linear-gradient-3);}</style><linearGradient id="linear-gradient" x1="105.19" y1="2.11" x2="97.98" y2="429.42" gradientUnits="userSpaceOnUse"><stop offset="0" stop-color="#30b28a"/><stop offset="1" stop-color="#1c7e8a"/></linearGradient><linearGradient id="linear-gradient-2" x1="104.17" y1="2.09" x2="96.96" y2="429.41" xlink:href="#linear-gradient"/><linearGradient id="linear-gradient-3" x1="103.92" y1="57.89" x2="97.93" y2="298.56" gradientUnits="userSpaceOnUse"><stop offset="0" stop-color="#d5b841"/><stop offset="1" stop-color="#ba8632"/></linearGradient></defs><title>Artboard 12</title><path class="cls-1" d="M101.59,224.2a67.89,67.89,0,0,0-52.15-24.32H0V231.7H49.44A36.22,36.22,0,0,1,85.62,267h31.91A36.23,36.23,0,0,1,153.7,231.7h49.46V199.88H153.7A67.77,67.77,0,0,0,101.59,224.2Z"/><path class="cls-2" d="M170.16,42.91,101.77,0,33.37,42.91A71.24,71.24,0,0,0,0,103.24v83.09H35.48V102.94A35.18,35.18,0,0,1,52,73.14l49.8-31.24,49.79,31.24a35.18,35.18,0,0,1,16.49,29.8v83.39h35.48V103.24A71.24,71.24,0,0,0,170.16,42.91Z"/><path class="cls-3" d="M144,84.33,101.76,57.84,59.5,84.33a22.49,22.49,0,0,0-10.49,19v83.06h.44c2.32,0,4.76.11,7.08.32h.12a78.89,78.89,0,0,1,30.81,9.22,76.13,76.13,0,0,1,14.1,9.31l.11-.12a.21.21,0,0,1,.21-.08l.09-.12c.12-.09.12-.09.23-.09a72.07,72.07,0,0,1,13-8.81c.12,0,.21-.09.33-.09a78.47,78.47,0,0,1,31-9.22c2.32-.21,4.67-.32,7.08-.32h.85V103.28A22.41,22.41,0,0,0,144,84.33Zm-13.6,63.18v16.8H113.66l-11.87,11.86L89.93,164.31H73.13v-16.8L61.29,135.67l11.84-11.83V107h16.8l11.86-11.87L113.66,107h16.77v16.8l11.81,11.83Z"/></svg>