<svg height="512pt" viewBox="-76 0 512 512" width="512pt" xmlns="http://www.w3.org/2000/svg"><path d="m278.863281 349.15625c-.050781-.015625-.097656-.046875-.148437-.0625l-28.53125-9.503906-39.28125 46.410156 21.417968 42.921875 7.679688.578125h90v-9.257812c0-32.277344-20.546875-60.816407-51.136719-71.085938zm0 0" fill="#ffb64c"/><path d="m229.746094 332.777344-99.492188 88.445312 102.066406 7.699219 17.863282-89.332031zm0 0" fill="#c69f85"/><path d="m360 463.398438c0 26.699218-21.898438 48.601562-48.601562 48.601562h-296.398438l146.699219-136.199219 18.300781 4.5 143.101562 35.699219c21.597657 5.398438 36.898438 24.898438 36.898438 47.398438zm0 0" fill="#f4d7af"/><path d="m360 463.398438c0 26.699218-21.898438 48.601562-48.601562 48.601562h-131.398438v-131.699219l143.101562 35.699219c21.597657 5.398438 36.898438 24.898438 36.898438 47.398438zm0 0" fill="#dabba6"/><path d="m268.5 90.902344c-6.972656 32.070312-35.671875 59.097656-73.5 59.097656-4.800781 0-9.601562-.300781-14.097656-1.5-2.101563-15-30.902344-59.402344-26.402344-70.5 10.800781-27.601562 102.902344-24.597656 111.300781-27.601562 4.5 12.902343 5.398438 26.703124 2.699219 40.503906zm0 0" fill="#ffb64c"/><path d="m265.800781 50.398438c.601563-.296876.898438-.296876.898438-.296876-3.898438-3.902343-15.597657-50.101562-71.699219-50.101562-5.097656 0-10.199219.601562-15 1.5-18.601562 3.898438-35.097656 14.402344-46.199219 30-87.601562 123.597656-133.800781 270.800781-133.800781 422v58.5h15c32.699219 0 132.300781 0 151.199219-93.898438.902343-1.800781 2.402343-19.800781 13.800781-34.800781 7.53125-10.878906 19.992188-19.945312 40.28125-21.160156 11.027344-.664063 19.71875-9.617187 19.71875-20.664063v-.476562c0-46.199219-14.699219-96.199219-43.5-144.199219-8.699219-14.101562-14.097656-31.5-15.597656-48.300781-.601563-4.800781-.902344-9.601562-.902344-14.101562 0-9.597657 1.5-18.898438 4.5-26.398438 10.800781-27.601562 72.902344-54.597656 81.300781-57.601562zm0 0" fill="#faecd8"/><g fill="#f4d7af"><path d="m180 383.300781v-248.902343c0 4.5.300781 9.300781.902344 14.101562 1.5 16.800781 6.898437 34.199219 15.597656 48.300781 28.800781 48 43.5 98 43.5 144.199219v.476562c0 11.046876-8.691406 20-19.71875 20.664063-20.289062 1.214844-32.75 10.28125-40.28125 21.160156zm0 0"/><path d="m184.5 108c-3 7.5-4.5 16.800781-4.5 26.398438v-132.898438c4.800781-.898438 9.902344-1.5 15-1.5 56.101562 0 67.800781 46.199219 71.699219 50.097656 0 0-.300781 0-.898438.300782-8.398437 3.003906-70.5 30-81.300781 57.601562zm0 0"/></g></svg>