<?xml version="1.0"?>
<svg xmlns="http://www.w3.org/2000/svg" xmlns:xlink="http://www.w3.org/1999/xlink" xmlns:svgjs="http://svgjs.com/svgjs" version="1.1" width="512" height="512" x="0" y="0" viewBox="0 0 162.335 162.335" style="enable-background:new 0 0 512 512" xml:space="preserve" class=""><g transform="matrix(-6.123233995736766e-17,1,1,6.123233995736766e-17,0.0000057220458984375,-0.0000057220458984375)">
<g xmlns="http://www.w3.org/2000/svg">
	<g>
		<path style="" d="M52.616,155.3L0,102.678l52.616-52.622v32.472c50.026-4.738,91.472-31.439,101.413-65.636    l2.87-9.857l2.864,9.857c1.701,5.871,2.572,11.898,2.572,17.907c0,44.746-46.971,82.182-109.719,87.874L52.616,155.3L52.616,155.3    z M8.437,102.672l38.212,38.218v-23.736l2.769-0.209c60.975-4.594,106.956-39.912,106.956-82.158c0-2.1-0.119-4.201-0.352-6.301    C140.747,61.268,99.688,84.98,49.853,88.739l-3.204,0.245v-24.53L8.437,102.672z" fill="#ffffff" data-original="#010002"/>
	</g>
</g>
<g xmlns="http://www.w3.org/2000/svg">
</g>
<g xmlns="http://www.w3.org/2000/svg">
</g>
<g xmlns="http://www.w3.org/2000/svg">
</g>
<g xmlns="http://www.w3.org/2000/svg">
</g>
<g xmlns="http://www.w3.org/2000/svg">
</g>
<g xmlns="http://www.w3.org/2000/svg">
</g>
<g xmlns="http://www.w3.org/2000/svg">
</g>
<g xmlns="http://www.w3.org/2000/svg">
</g>
<g xmlns="http://www.w3.org/2000/svg">
</g>
<g xmlns="http://www.w3.org/2000/svg">
</g>
<g xmlns="http://www.w3.org/2000/svg">
</g>
<g xmlns="http://www.w3.org/2000/svg">
</g>
<g xmlns="http://www.w3.org/2000/svg">
</g>
<g xmlns="http://www.w3.org/2000/svg">
</g>
<g xmlns="http://www.w3.org/2000/svg">
</g>
</g></svg>
