<?xml version="1.0" encoding="iso-8859-1"?>
<!-- Generator: Adobe Illustrator 19.0.0, SVG Export Plug-In . SVG Version: 6.00 Build 0)  -->
<svg version="1.1" id="Capa_1" xmlns="http://www.w3.org/2000/svg" xmlns:xlink="http://www.w3.org/1999/xlink" x="0px" y="0px"
	 viewBox="0 0 512 512" style="enable-background:new 0 0 512 512;" xml:space="preserve">
<path style="fill:#DCE1EB;" d="M500.063,305.4l-42.001-84C456.262,98.1,355.763,0,233.062,0c-14.7,0-29.7,1.5-45,4.501
	C99.261,21.599,28.462,92.999,11.962,182.1c-11.4,62.699,2.401,125.099,39.3,175.499C81.863,399.6,98.062,449,98.062,497
	c0,8.401,6.599,15,15,15h210c8.401,0,15-6.599,15-15v-39.2c0-4.2,3.6-7.8,7.8-7.8h67.2c24.901,0,45-20.099,45-45v-45h8.101
	c13.2,0,25.199-6.599,32.1-17.999C505.162,330.901,505.763,317.1,500.063,305.4z"/>
<path style="fill:#CDD2E1;" d="M498.263,342.001c-6.901,11.4-18.9,17.999-32.1,17.999h-8.101v45c0,24.901-20.099,45-45,45h-67.2
	c-4.2,0-7.8,3.6-7.8,7.8V497c0,8.401-6.599,15-15,15h-90V0c122.701,0,223.2,98.101,225,221.4l42.001,84
	C505.763,317.1,505.162,330.901,498.263,342.001z"/>
<path style="fill:#FEA832;" d="M338.062,135v165l-210,30V135c0-24.901,20.099-45,45-45h120C317.962,90,338.062,110.099,338.062,135z
	"/>
<path style="fill:#A37862;" d="M338.062,300v45c0,8.399-6.599,15-15,15h-165c-16.5,0-30-13.5-30-30s13.5-30,30-30H338.062z"/>
<path style="fill:#FE9923;" d="M338.062,135v165l-105,15V90h60C317.962,90,338.062,110.099,338.062,135z"/>
<path style="fill:#FF475A;" d="M278.062,90v105c0,6-3.6,11.4-9.3,13.799c-5.4,2.401-12.001,1.201-16.199-3.3l-19.501-19.2
	l-19.501,19.2c-4.199,4.501-10.499,5.7-16.199,3.3c-5.7-2.399-9.3-7.798-9.3-13.799V90H278.062z"/>
<path style="fill:#ED2042;" d="M252.563,205.499l-19.501-19.2V90h45v105c0,6-3.6,11.4-9.3,13.799
	C263.362,211.199,256.761,210,252.563,205.499z"/>
<path style="fill:#8D5C4D;" d="M338.062,300v45c0,8.399-6.599,15-15,15h-90v-60H338.062z"/>
<g>
</g>
<g>
</g>
<g>
</g>
<g>
</g>
<g>
</g>
<g>
</g>
<g>
</g>
<g>
</g>
<g>
</g>
<g>
</g>
<g>
</g>
<g>
</g>
<g>
</g>
<g>
</g>
<g>
</g>
</svg>
